<mxfile host="app.diagrams.net" modified="2023-12-11T16:12:01.266Z" agent="Mozilla/5.0 (Windows NT 10.0; Win64; x64) AppleWebKit/537.36 (KHTML, like Gecko) Chrome/120.0.0.0 Safari/537.36" etag="gcWbVi7Gc8L0HQzEz9gr" version="22.1.7" type="device">
  <diagram id="R2lEEEUBdFMjLlhIrx00" name="Page-1">
    <mxGraphModel dx="1938" dy="1013" grid="1" gridSize="10" guides="1" tooltips="1" connect="1" arrows="1" fold="1" page="1" pageScale="1" pageWidth="1200" pageHeight="1920" math="0" shadow="0" extFonts="Permanent Marker^https://fonts.googleapis.com/css?family=Permanent+Marker">
      <root>
        <mxCell id="0" />
        <mxCell id="1" parent="0" />
        <mxCell id="sWb-kKHQS2T5jUIIVBgP-8" value="&lt;font face=&quot;Times New Roman&quot;&gt;&lt;u&gt;User_ID&lt;/u&gt;&lt;/font&gt;" style="rounded=0;whiteSpace=wrap;html=1;" parent="1" vertex="1">
          <mxGeometry x="160" y="270" width="70" height="30" as="geometry" />
        </mxCell>
        <mxCell id="sWb-kKHQS2T5jUIIVBgP-16" value="User_Name" style="rounded=0;whiteSpace=wrap;html=1;" parent="1" vertex="1">
          <mxGeometry x="230" y="270" width="70" height="30" as="geometry" />
        </mxCell>
        <mxCell id="sWb-kKHQS2T5jUIIVBgP-17" value="Password" style="rounded=0;whiteSpace=wrap;html=1;" parent="1" vertex="1">
          <mxGeometry x="300" y="270" width="70" height="30" as="geometry" />
        </mxCell>
        <mxCell id="sWb-kKHQS2T5jUIIVBgP-18" value="Email" style="rounded=0;whiteSpace=wrap;html=1;" parent="1" vertex="1">
          <mxGeometry x="370" y="270" width="70" height="30" as="geometry" />
        </mxCell>
        <mxCell id="sWb-kKHQS2T5jUIIVBgP-22" value="&lt;font style=&quot;font-size: 14px;&quot; face=&quot;Times New Roman&quot;&gt;&lt;b&gt;User&lt;/b&gt;&lt;/font&gt;" style="text;html=1;align=center;verticalAlign=middle;resizable=0;points=[];autosize=1;strokeColor=none;fillColor=none;" parent="1" vertex="1">
          <mxGeometry x="140" y="240" width="50" height="30" as="geometry" />
        </mxCell>
        <mxCell id="sWb-kKHQS2T5jUIIVBgP-33" style="edgeStyle=orthogonalEdgeStyle;rounded=0;orthogonalLoop=1;jettySize=auto;html=1;exitX=0;exitY=0.5;exitDx=0;exitDy=0;entryX=0;entryY=0.5;entryDx=0;entryDy=0;" parent="1" source="sWb-kKHQS2T5jUIIVBgP-23" target="sWb-kKHQS2T5jUIIVBgP-8" edge="1">
          <mxGeometry relative="1" as="geometry">
            <mxPoint x="80" y="280" as="targetPoint" />
            <Array as="points">
              <mxPoint x="110" y="415" />
              <mxPoint x="110" y="285" />
            </Array>
          </mxGeometry>
        </mxCell>
        <mxCell id="sWb-kKHQS2T5jUIIVBgP-23" value="&lt;u&gt;User_ID&lt;/u&gt;" style="rounded=0;whiteSpace=wrap;html=1;" parent="1" vertex="1">
          <mxGeometry x="160" y="400" width="70" height="30" as="geometry" />
        </mxCell>
        <mxCell id="sWb-kKHQS2T5jUIIVBgP-27" value="&lt;b&gt;Favorite&lt;/b&gt;" style="text;html=1;align=center;verticalAlign=middle;resizable=0;points=[];autosize=1;strokeColor=none;fillColor=none;" parent="1" vertex="1">
          <mxGeometry x="150" y="370" width="70" height="30" as="geometry" />
        </mxCell>
        <mxCell id="PeeJ0ZpU5edJUtMFXC9y-1" style="edgeStyle=orthogonalEdgeStyle;rounded=0;orthogonalLoop=1;jettySize=auto;html=1;exitX=0.5;exitY=1;exitDx=0;exitDy=0;" edge="1" parent="1" source="sWb-kKHQS2T5jUIIVBgP-37" target="sWb-kKHQS2T5jUIIVBgP-82">
          <mxGeometry relative="1" as="geometry" />
        </mxCell>
        <mxCell id="sWb-kKHQS2T5jUIIVBgP-37" value="&lt;u&gt;song_id&lt;/u&gt;" style="rounded=0;whiteSpace=wrap;html=1;" parent="1" vertex="1">
          <mxGeometry x="230" y="400" width="70" height="30" as="geometry" />
        </mxCell>
        <mxCell id="sWb-kKHQS2T5jUIIVBgP-49" value="&lt;u&gt;Playlist_ID&lt;/u&gt;" style="rounded=0;whiteSpace=wrap;html=1;" parent="1" vertex="1">
          <mxGeometry x="215" y="740" width="80" height="30" as="geometry" />
        </mxCell>
        <mxCell id="sWb-kKHQS2T5jUIIVBgP-51" value="Playlist_Name" style="rounded=0;whiteSpace=wrap;html=1;" parent="1" vertex="1">
          <mxGeometry x="295" y="740" width="80" height="30" as="geometry" />
        </mxCell>
        <mxCell id="sWb-kKHQS2T5jUIIVBgP-61" style="edgeStyle=orthogonalEdgeStyle;rounded=0;orthogonalLoop=1;jettySize=auto;html=1;exitX=1;exitY=0;exitDx=0;exitDy=0;entryX=0.61;entryY=-0.033;entryDx=0;entryDy=0;entryPerimeter=0;" parent="1" edge="1">
          <mxGeometry relative="1" as="geometry">
            <mxPoint x="219.99999999999983" y="268.95" as="targetPoint" />
            <mxPoint x="457.3" y="739.94" as="sourcePoint" />
            <Array as="points">
              <mxPoint x="447.3" y="739.94" />
              <mxPoint x="447.3" y="249.94" />
              <mxPoint x="220.3" y="249.94" />
            </Array>
          </mxGeometry>
        </mxCell>
        <mxCell id="sWb-kKHQS2T5jUIIVBgP-53" value="User_ID" style="rounded=0;whiteSpace=wrap;html=1;" parent="1" vertex="1">
          <mxGeometry x="370" y="740" width="80" height="30" as="geometry" />
        </mxCell>
        <mxCell id="sWb-kKHQS2T5jUIIVBgP-54" value="&lt;b&gt;Playlist&lt;/b&gt;" style="text;html=1;align=center;verticalAlign=middle;resizable=0;points=[];autosize=1;strokeColor=none;fillColor=none;" parent="1" vertex="1">
          <mxGeometry x="160" y="720" width="70" height="30" as="geometry" />
        </mxCell>
        <mxCell id="sWb-kKHQS2T5jUIIVBgP-80" value="Song_Name" style="whiteSpace=wrap;html=1;" parent="1" vertex="1">
          <mxGeometry x="770" y="570" width="70" height="30" as="geometry" />
        </mxCell>
        <mxCell id="sWb-kKHQS2T5jUIIVBgP-81" value="Genre" style="whiteSpace=wrap;html=1;" parent="1" vertex="1">
          <mxGeometry x="840" y="570" width="70" height="30" as="geometry" />
        </mxCell>
        <mxCell id="sWb-kKHQS2T5jUIIVBgP-82" value="&lt;u&gt;song_id&lt;/u&gt;" style="whiteSpace=wrap;html=1;" parent="1" vertex="1">
          <mxGeometry x="700" y="570" width="70" height="30" as="geometry" />
        </mxCell>
        <mxCell id="sWb-kKHQS2T5jUIIVBgP-83" value="&lt;b&gt;Song&lt;/b&gt;" style="text;html=1;align=center;verticalAlign=middle;resizable=0;points=[];autosize=1;strokeColor=none;fillColor=none;" parent="1" vertex="1">
          <mxGeometry x="690" y="540" width="50" height="30" as="geometry" />
        </mxCell>
        <mxCell id="sWb-kKHQS2T5jUIIVBgP-92" style="edgeStyle=orthogonalEdgeStyle;rounded=0;orthogonalLoop=1;jettySize=auto;html=1;exitX=0;exitY=0.5;exitDx=0;exitDy=0;" parent="1" source="sWb-kKHQS2T5jUIIVBgP-88" edge="1">
          <mxGeometry relative="1" as="geometry">
            <mxPoint x="110" y="290" as="targetPoint" />
          </mxGeometry>
        </mxCell>
        <mxCell id="sWb-kKHQS2T5jUIIVBgP-88" value="&lt;u&gt;User_ID&lt;/u&gt;" style="whiteSpace=wrap;html=1;" parent="1" vertex="1">
          <mxGeometry x="700" y="710" width="70" height="30" as="geometry" />
        </mxCell>
        <mxCell id="sWb-kKHQS2T5jUIIVBgP-91" style="edgeStyle=orthogonalEdgeStyle;rounded=0;orthogonalLoop=1;jettySize=auto;html=1;exitX=0.5;exitY=0;exitDx=0;exitDy=0;" parent="1" source="sWb-kKHQS2T5jUIIVBgP-89" edge="1">
          <mxGeometry relative="1" as="geometry">
            <mxPoint x="750" y="610" as="targetPoint" />
          </mxGeometry>
        </mxCell>
        <mxCell id="sWb-kKHQS2T5jUIIVBgP-89" value="&lt;u&gt;song_id&lt;/u&gt;" style="whiteSpace=wrap;html=1;" parent="1" vertex="1">
          <mxGeometry x="770" y="710" width="70" height="30" as="geometry" />
        </mxCell>
        <mxCell id="sWb-kKHQS2T5jUIIVBgP-90" value="&lt;b&gt;Listens To&lt;/b&gt;" style="text;html=1;align=center;verticalAlign=middle;resizable=0;points=[];autosize=1;strokeColor=none;fillColor=none;" parent="1" vertex="1">
          <mxGeometry x="695" y="680" width="80" height="30" as="geometry" />
        </mxCell>
        <mxCell id="sWb-kKHQS2T5jUIIVBgP-93" value="&lt;b&gt;Has&lt;/b&gt;" style="text;html=1;align=center;verticalAlign=middle;resizable=0;points=[];autosize=1;strokeColor=none;fillColor=none;" parent="1" vertex="1">
          <mxGeometry x="575" y="920" width="50" height="30" as="geometry" />
        </mxCell>
        <mxCell id="sWb-kKHQS2T5jUIIVBgP-95" value="&lt;u&gt;Playlist_ID&lt;/u&gt;" style="whiteSpace=wrap;html=1;" parent="1" vertex="1">
          <mxGeometry x="580" y="950" width="70" height="30" as="geometry" />
        </mxCell>
        <mxCell id="sWb-kKHQS2T5jUIIVBgP-105" style="edgeStyle=orthogonalEdgeStyle;rounded=0;orthogonalLoop=1;jettySize=auto;html=1;exitX=0.25;exitY=0;exitDx=0;exitDy=0;entryX=0;entryY=0.25;entryDx=0;entryDy=0;" parent="1" source="sWb-kKHQS2T5jUIIVBgP-96" target="sWb-kKHQS2T5jUIIVBgP-82" edge="1">
          <mxGeometry relative="1" as="geometry">
            <mxPoint x="670" y="937" as="sourcePoint" />
            <mxPoint x="667.5" y="572" as="targetPoint" />
            <Array as="points">
              <mxPoint x="668" y="578" />
            </Array>
          </mxGeometry>
        </mxCell>
        <mxCell id="sWb-kKHQS2T5jUIIVBgP-96" value="&lt;u&gt;song_id&lt;/u&gt;" style="whiteSpace=wrap;html=1;" parent="1" vertex="1">
          <mxGeometry x="650" y="950" width="70" height="30" as="geometry" />
        </mxCell>
        <mxCell id="sWb-kKHQS2T5jUIIVBgP-97" value="&lt;b&gt;Album&lt;br&gt;&lt;br&gt;&lt;/b&gt;" style="text;html=1;align=center;verticalAlign=middle;resizable=0;points=[];autosize=1;strokeColor=none;fillColor=none;" parent="1" vertex="1">
          <mxGeometry x="65" y="900" width="60" height="40" as="geometry" />
        </mxCell>
        <mxCell id="sWb-kKHQS2T5jUIIVBgP-98" value="&lt;u&gt;Album_Name&lt;/u&gt;" style="whiteSpace=wrap;html=1;" parent="1" vertex="1">
          <mxGeometry x="50" y="930" width="80" height="30" as="geometry" />
        </mxCell>
        <mxCell id="WUZw7QtQylaXrKw1nTfn-1" style="edgeStyle=orthogonalEdgeStyle;rounded=0;orthogonalLoop=1;jettySize=auto;html=1;exitX=0.25;exitY=1;exitDx=0;exitDy=0;" parent="1" source="sWb-kKHQS2T5jUIIVBgP-100" edge="1">
          <mxGeometry relative="1" as="geometry">
            <mxPoint x="100" y="1030" as="targetPoint" />
            <Array as="points">
              <mxPoint x="928" y="725" />
              <mxPoint x="871" y="725" />
            </Array>
          </mxGeometry>
        </mxCell>
        <mxCell id="sWb-kKHQS2T5jUIIVBgP-100" value="Album_Name" style="whiteSpace=wrap;html=1;" parent="1" vertex="1">
          <mxGeometry x="910" y="570" width="70" height="30" as="geometry" />
        </mxCell>
        <mxCell id="sWb-kKHQS2T5jUIIVBgP-103" style="edgeStyle=orthogonalEdgeStyle;rounded=0;orthogonalLoop=1;jettySize=auto;html=1;exitX=0;exitY=0.5;exitDx=0;exitDy=0;entryX=0.842;entryY=1.011;entryDx=0;entryDy=0;entryPerimeter=0;" parent="1" edge="1">
          <mxGeometry relative="1" as="geometry">
            <mxPoint x="642.64" y="959.67" as="sourcePoint" />
            <mxPoint x="250.0000000000001" y="764.9999999999999" as="targetPoint" />
            <Array as="points">
              <mxPoint x="642.64" y="895" />
              <mxPoint x="249.64" y="895" />
            </Array>
          </mxGeometry>
        </mxCell>
        <mxCell id="sWb-kKHQS2T5jUIIVBgP-107" value="&lt;b&gt;TrackOfAlbum&lt;/b&gt;" style="text;html=1;align=center;verticalAlign=middle;resizable=0;points=[];autosize=1;strokeColor=none;fillColor=none;" parent="1" vertex="1">
          <mxGeometry x="90" y="1060" width="110" height="30" as="geometry" />
        </mxCell>
        <mxCell id="9DAEks7qnri7isAqnfsU-3" style="edgeStyle=orthogonalEdgeStyle;rounded=0;orthogonalLoop=1;jettySize=auto;html=1;exitX=0;exitY=0.5;exitDx=0;exitDy=0;entryX=0;entryY=0.25;entryDx=0;entryDy=0;" parent="1" source="sWb-kKHQS2T5jUIIVBgP-110" target="sWb-kKHQS2T5jUIIVBgP-98" edge="1">
          <mxGeometry relative="1" as="geometry" />
        </mxCell>
        <mxCell id="sWb-kKHQS2T5jUIIVBgP-110" value="&lt;u&gt;Album_Name&lt;/u&gt;" style="whiteSpace=wrap;html=1;" parent="1" vertex="1">
          <mxGeometry x="70" y="1090" width="75" height="30" as="geometry" />
        </mxCell>
        <mxCell id="sWb-kKHQS2T5jUIIVBgP-111" value="&lt;u&gt;Album_Track&lt;/u&gt;" style="whiteSpace=wrap;html=1;" parent="1" vertex="1">
          <mxGeometry x="145" y="1090" width="85" height="30" as="geometry" />
        </mxCell>
        <mxCell id="sWb-kKHQS2T5jUIIVBgP-120" style="edgeStyle=orthogonalEdgeStyle;rounded=0;orthogonalLoop=1;jettySize=auto;html=1;exitX=0.5;exitY=1;exitDx=0;exitDy=0;entryX=0.5;entryY=0;entryDx=0;entryDy=0;" parent="1" source="sWb-kKHQS2T5jUIIVBgP-116" target="sWb-kKHQS2T5jUIIVBgP-118" edge="1">
          <mxGeometry relative="1" as="geometry" />
        </mxCell>
        <mxCell id="sWb-kKHQS2T5jUIIVBgP-116" value="Artist_Name" style="whiteSpace=wrap;html=1;" parent="1" vertex="1">
          <mxGeometry x="980" y="570" width="70" height="30" as="geometry" />
        </mxCell>
        <mxCell id="sWb-kKHQS2T5jUIIVBgP-117" value="&lt;b&gt;Artist&lt;br&gt;&lt;/b&gt;" style="text;html=1;align=center;verticalAlign=middle;resizable=0;points=[];autosize=1;strokeColor=none;fillColor=none;" parent="1" vertex="1">
          <mxGeometry x="900" y="830" width="50" height="30" as="geometry" />
        </mxCell>
        <mxCell id="sWb-kKHQS2T5jUIIVBgP-118" value="&lt;u&gt;Artist_Name&lt;/u&gt;" style="whiteSpace=wrap;html=1;" parent="1" vertex="1">
          <mxGeometry x="910" y="860" width="70" height="30" as="geometry" />
        </mxCell>
        <mxCell id="WUZw7QtQylaXrKw1nTfn-7" value="" style="endArrow=classic;html=1;rounded=0;entryX=0.6;entryY=1.033;entryDx=0;entryDy=0;entryPerimeter=0;" parent="1" target="sWb-kKHQS2T5jUIIVBgP-98" edge="1">
          <mxGeometry width="50" height="50" relative="1" as="geometry">
            <mxPoint x="99.5" y="1030" as="sourcePoint" />
            <mxPoint x="100" y="970" as="targetPoint" />
            <Array as="points">
              <mxPoint x="99.5" y="1020" />
            </Array>
          </mxGeometry>
        </mxCell>
        <mxCell id="r94kBz4S62Lv9Xiqc5oJ-1" value="Song_Link" style="whiteSpace=wrap;html=1;" parent="1" vertex="1">
          <mxGeometry x="1050" y="570" width="70" height="30" as="geometry" />
        </mxCell>
        <mxCell id="-1qZ9hIkbsyn-RDzOdcl-16" value="&lt;u&gt;Playlist_ID&lt;/u&gt;" style="whiteSpace=wrap;html=1;" parent="1" vertex="1">
          <mxGeometry x="405" y="820" width="70" height="30" as="geometry" />
        </mxCell>
        <mxCell id="-1qZ9hIkbsyn-RDzOdcl-17" value="&lt;u&gt;Songs&lt;/u&gt;" style="whiteSpace=wrap;html=1;" parent="1" vertex="1">
          <mxGeometry x="475" y="820" width="70" height="30" as="geometry" />
        </mxCell>
        <mxCell id="-1qZ9hIkbsyn-RDzOdcl-18" value="&lt;b&gt;Playlist_Songs&lt;/b&gt;" style="text;html=1;align=center;verticalAlign=middle;resizable=0;points=[];autosize=1;strokeColor=none;fillColor=none;" parent="1" vertex="1">
          <mxGeometry x="400" y="790" width="110" height="30" as="geometry" />
        </mxCell>
        <mxCell id="-1qZ9hIkbsyn-RDzOdcl-19" style="edgeStyle=orthogonalEdgeStyle;rounded=0;orthogonalLoop=1;jettySize=auto;html=1;exitX=0;exitY=0.5;exitDx=0;exitDy=0;entryX=0.361;entryY=1.145;entryDx=0;entryDy=0;entryPerimeter=0;" parent="1" source="-1qZ9hIkbsyn-RDzOdcl-16" target="sWb-kKHQS2T5jUIIVBgP-49" edge="1">
          <mxGeometry relative="1" as="geometry" />
        </mxCell>
        <mxCell id="iLQyV9OwPtza468pZGUJ-1" value="&lt;u&gt;User_Id&lt;/u&gt;" style="whiteSpace=wrap;html=1;" parent="1" vertex="1">
          <mxGeometry x="670" y="310" width="50" height="30" as="geometry" />
        </mxCell>
        <mxCell id="iLQyV9OwPtza468pZGUJ-4" value="&lt;u&gt;Song&lt;/u&gt;" style="whiteSpace=wrap;html=1;" parent="1" vertex="1">
          <mxGeometry x="720" y="310" width="50" height="30" as="geometry" />
        </mxCell>
        <mxCell id="iLQyV9OwPtza468pZGUJ-5" value="&lt;b&gt;Add To&lt;/b&gt;" style="text;html=1;align=center;verticalAlign=middle;resizable=0;points=[];autosize=1;strokeColor=none;fillColor=none;" parent="1" vertex="1">
          <mxGeometry x="655" y="280" width="60" height="30" as="geometry" />
        </mxCell>
        <mxCell id="iLQyV9OwPtza468pZGUJ-7" style="edgeStyle=orthogonalEdgeStyle;rounded=0;orthogonalLoop=1;jettySize=auto;html=1;exitX=0.5;exitY=1;exitDx=0;exitDy=0;entryX=0.391;entryY=1.089;entryDx=0;entryDy=0;entryPerimeter=0;" parent="1" source="iLQyV9OwPtza468pZGUJ-1" target="sWb-kKHQS2T5jUIIVBgP-8" edge="1">
          <mxGeometry relative="1" as="geometry" />
        </mxCell>
        <mxCell id="k-tlxKpL8NfUxRgSEZXc-1" value="No. of Plays" style="whiteSpace=wrap;html=1;" parent="1" vertex="1">
          <mxGeometry x="1120" y="570" width="70" height="30" as="geometry" />
        </mxCell>
      </root>
    </mxGraphModel>
  </diagram>
</mxfile>
